<svg xmlns="http://www.w3.org/2000/svg" viewBox="0 0 64 80" x="0px" y="0px"><defs><style>
      .cls-1 {
        stroke-width: 0px;
      }
    </style></defs><path class="cls-1" d="m59.98466,37.05101v-.00189c-.07072-.60061-.36961-1.13806-.84105-1.51332-.47898-.38187-1.06923-.54781-1.66513-.47993-.6025.06789-1.14371.36772-1.52181.84576l-3.4962,4.40891v-20.13898c0-4.68423-3.81112-8.49535-8.49535-8.49535h-19.00281c-1.25026,0-2.26763,1.01642-2.26763,2.26574,0,1.25026,1.01737,2.26763,2.26763,2.26763h19.00281c2.18371,0,3.96104,1.77733,3.96104,3.96198v20.13992c-.5431-.68547-1.09846-1.38698-1.57838-1.99419-1.05697-1.33418-1.60761-2.02908-1.9461-2.39114l.02829-.02451c-.79391-1.00228-2.15637-1.15597-3.17185-.35735-.87311.69207-1.25403,2.06774-.37904,3.17373l5.96749,7.52418c.82313,1.01925,2.04228,1.60384,3.35571,1.60384,1.30966-.00283,2.53258-.5959,3.35854-1.63118l5.9458-7.49401c.37809-.47427.54781-1.06734.47804-1.66984Z"/><path class="cls-1" d="m39.08006,47.79041h-19.03534c-2.18418,0-3.96104-1.77733-3.96104-3.96198l-.01933-.40072c.03536-.90988.03112-2.82864.0198-7.5157l-.00047-.11032c-.00896-3.84601-.02027-8.75936-.01273-12.12355l3.50751,4.42022c.37668.47521.91601.77505,1.51144.84388.60486.06694,1.20123-.09712,1.67314-.47521.47474-.37621.77458-.91554.84435-1.51804.0693-.6025-.10042-1.19557-.4771-1.66701l-5.96702-7.5223c-.82172-1.02114-2.04086-1.60667-3.35524-1.60667-1.31013.00283-2.53446.59684-3.35901,1.63213l-5.9557,7.50627c-.78495,1.00888-.61759,2.3704.39082,3.16808,1.00605.79296,2.36804.64022,3.16808-.36018l3.49667-4.39759v20.12672c0,4.68423,3.81112,8.49535,8.49582,8.49535h19.03345c1.44449-.03112,2.22425-1.19369,2.22425-2.26951.00189-1.073-.77693-2.23085-2.22237-2.26386Z"/></svg>